<mxfile host="app.diagrams.net" agent="Mozilla/5.0 (Windows NT 10.0; Win64; x64) AppleWebKit/537.36 (KHTML, like Gecko) Chrome/127.0.0.0 Safari/537.36" version="24.7.13">
  <diagram name="Page-1" id="nEbZ2qGWbRBelPj1LmTL">
    <mxGraphModel dx="5185" dy="2830" grid="1" gridSize="10" guides="1" tooltips="1" connect="1" arrows="1" fold="1" page="1" pageScale="1" pageWidth="3300" pageHeight="4681" math="0" shadow="0">
      <root>
        <mxCell id="0" />
        <mxCell id="1" parent="0" />
        <mxCell id="EjHR0BCcszJCZ5Mc9Wk5-1732" value="" style="rounded=0;whiteSpace=wrap;html=1;fillColor=#dae8fc;strokeColor=#6c8ebf;" vertex="1" parent="1">
          <mxGeometry x="340" y="1210" width="500" height="390" as="geometry" />
        </mxCell>
        <mxCell id="EjHR0BCcszJCZ5Mc9Wk5-1733" value="" style="rounded=0;whiteSpace=wrap;html=1;fillColor=#d5e8d4;strokeColor=#82b366;" vertex="1" parent="1">
          <mxGeometry x="950" y="1250" width="310" height="260" as="geometry" />
        </mxCell>
        <mxCell id="EjHR0BCcszJCZ5Mc9Wk5-1734" style="edgeStyle=orthogonalEdgeStyle;rounded=0;orthogonalLoop=1;jettySize=auto;html=1;strokeWidth=4;fillColor=#fff2cc;strokeColor=#d6b656;" edge="1" parent="1" source="EjHR0BCcszJCZ5Mc9Wk5-1735" target="EjHR0BCcszJCZ5Mc9Wk5-1736">
          <mxGeometry relative="1" as="geometry" />
        </mxCell>
        <mxCell id="EjHR0BCcszJCZ5Mc9Wk5-1735" value="" style="rounded=0;whiteSpace=wrap;html=1;fillColor=#fff2cc;strokeColor=#d6b656;" vertex="1" parent="1">
          <mxGeometry x="435" y="1285" width="230" height="170" as="geometry" />
        </mxCell>
        <mxCell id="EjHR0BCcszJCZ5Mc9Wk5-1736" value="" style="rounded=0;whiteSpace=wrap;html=1;fillColor=#fff2cc;strokeColor=#d6b656;" vertex="1" parent="1">
          <mxGeometry x="990" y="1285" width="230" height="170" as="geometry" />
        </mxCell>
      </root>
    </mxGraphModel>
  </diagram>
</mxfile>
